<?xml version="1.0" encoding="utf-8"?>
<!-- Generator: Adobe Illustrator 17.0.2, SVG Export Plug-In . SVG Version: 6.00 Build 0)  -->
<!DOCTYPE svg PUBLIC "-//W3C//DTD SVG 1.1//EN" "http://www.w3.org/Graphics/SVG/1.1/DTD/svg11.dtd">
<svg version="1.1" id="Capa_1" xmlns="http://www.w3.org/2000/svg" xmlns:xlink="http://www.w3.org/1999/xlink" x="0px" y="0px"
	 width="375px" height="375px" viewBox="-14.5 -14.5 375 375" style="enable-background:new -14.5 -14.5 375 375;"
	 xml:space="preserve">
<g>
	<g>
		<path style="fill:#FFFFFF;" d="M330.888,171.998c0,88.057-71.475,159.396-159.6,159.396c-88.137,0-159.625-71.34-159.625-159.396
			c0-87.991,71.488-159.36,159.625-159.36C259.413,12.637,330.888,84.006,330.888,171.998z"/>
	</g>
	<g>
		<g>
			<path style="fill:#A9B833;" d="M158.996,180.09c1.835,1.79,1.808,4.764-0.075,6.677l-29.154,28.39
				c-1.898,1.822-4.84,1.797-6.648-0.031l-0.25-0.294c-1.84-1.882-3.648-2.998-1.781-4.828l31.037-30.296
				c1.84-1.766,4.795-1.739,6.605,0.058L158.996,180.09z"/>
		</g>
		<g>
			<path style="fill:#A9B833;" d="M112.407,196.857c2.488,0.676,3.959,3.174,3.326,5.678l-2.707,10.176
				c-0.649,2.477-14.239,15.657-14.239,15.657l7.503-28.304c0.706-2.5,3.266-4.004,5.738-3.324L112.407,196.857z"/>
		</g>
		<g>
			<path style="fill:#A9B833;" d="M177.632,180.234c1.762,1.822,1.762,4.794-0.09,6.592l-34.464,33.802l-8.136-5.678l35.789-35.068
				c1.838-1.766,4.838-1.738,6.65,0.06L177.632,180.234z"/>
		</g>
		<g>
			<path style="fill:#A9B833;" d="M182.632,194.561c1.824,1.881,1.781,4.795-0.076,6.651l-29.166,28.42
				c-1.811,1.824-4.779,1.792-6.637-0.058l-0.248-0.267c-1.809-1.855-1.795-4.827,0.088-6.592l29.17-28.447
				c1.838-1.856,4.838-1.825,6.664,0.057L182.632,194.561z"/>
		</g>
		<g>
			<path style="fill:#A9B833;" d="M182.071,214.157c1.855,1.882,1.795,4.822-0.029,6.646l-29.211,28.421
				c-1.84,1.855-8.342,10.447-10.107,8.622l3.223-8.883c-1.809-1.888-1.766-4.796,0.091-6.65l29.167-28.422
				c1.867-1.882,4.854-1.824,6.617,0.059L182.071,214.157z"/>
		</g>
		<g>
			<path style="fill:#A9B833;" d="M132.796,251.106h-16.092l-8.033-13.914l8.033-13.827h16.092l8.032,13.827L132.796,251.106z
				 M125.353,210.037c-15.385,0-27.814,12.446-27.814,27.831c0,15.359,12.43,27.805,27.814,27.805
				c15.414,0,27.904-12.445,27.904-27.805C153.257,222.483,140.767,210.037,125.353,210.037z"/>
		</g>
		<g>
			<path style="fill:#A9B833;" d="M187.399,162.672c-1.799-1.854-1.783-4.827,0.059-6.618l29.184-28.48
				c1.855-1.791,4.795-1.765,6.619,0.092l0.262,0.266c1.854,1.79,3.633,2.966,1.766,4.794l-31.008,30.272
				c-1.854,1.85-4.838,1.823-6.662-0.031L187.399,162.672z"/>
		</g>
		<g>
			<path style="fill:#A9B833;" d="M234.026,145.9c-2.516-0.675-4.047-3.233-3.381-5.705l2.705-10.148
				c0.676-2.531,14.281-15.71,14.281-15.71l-7.529,28.33c-0.662,2.474-3.252,4.004-5.77,3.324L234.026,145.9z"/>
		</g>
		<g>
			<path style="fill:#A9B833;" d="M168.774,162.466c-1.82-1.766-1.777-4.764,0.09-6.561l34.449-33.774l8.133,5.678l-35.799,35.067
				c-1.828,1.797-4.812,1.681-6.651-0.059L168.774,162.466z"/>
		</g>
		<g>
			<path style="fill:#A9B833;" d="M163.747,148.17c-1.826-1.856-1.812-4.796,0.059-6.651l29.166-28.448
				c1.883-1.797,4.842-1.764,6.664,0.059l0.264,0.267c1.795,1.882,1.736,4.821-0.059,6.591l-29.213,28.567
				c-1.854,1.765-4.779,1.732-6.604-0.181L163.747,148.17z"/>
		</g>
		<g>
			<path style="fill:#A9B833;" d="M164.276,128.574c-1.812-1.908-1.797-4.822,0.102-6.645l29.168-28.447
				c1.869-1.825,8.355-10.475,10.164-8.592l-3.295,8.852c1.795,1.888,1.795,4.885-0.029,6.65l-29.199,28.449
				c-1.855,1.855-4.854,1.822-6.648-0.086L164.276,128.574z"/>
		</g>
		<g>
			<path style="fill:#A9B833;" d="M213.579,91.597h16.064l8.061,13.914l-8.061,13.912h-16.064l-8.001-13.912L213.579,91.597z
				 M220.991,132.693c15.387,0,27.861-12.529,27.861-27.831c0-15.385-12.475-27.767-27.861-27.767
				c-15.369,0-27.797,12.382-27.797,27.767C193.194,120.164,205.622,132.693,220.991,132.693z"/>
		</g>
		<g>
			<path style="fill:#A9B833;" d="M32.11,141.843v0.176c1.677,0.792,3.824,1.706,5.473,2.499l5.887,3.152l1.363-6.561l-6.678,0.5
				C36.302,141.752,33.935,141.784,32.11,141.843z"/>
		</g>
		<g>
			<path style="fill:#A9B833;" d="M249.528,275.525c-0.721-0.117-1.471,0.116-2.266,0.648l-1.557,1.114l3.676,5.064l1.66-1.208
				c0.709-0.558,1.107-1.174,1.18-1.939c0.045-0.734-0.117-1.473-0.721-2.206C250.942,276.115,250.235,275.704,249.528,275.525z"/>
		</g>
		<g>
			<path style="fill:#A9B833;" d="M132.399,292.765l-1.797-0.531l-1.984,5.884l1.941,0.617c0.855,0.298,1.562,0.235,2.236-0.117
				c0.645-0.408,1.088-0.966,1.428-1.882c0.34-1.03,0.34-1.882,0.012-2.498C133.915,293.589,133.298,293.148,132.399,292.765z"/>
		</g>
		<g>
			<path style="fill:#A9B833;" d="M79.608,262.552c0.807-0.676,1.205-1.415,1.295-2.115c0-0.766-0.34-1.506-0.971-2.122l-1.326-1.44
				l-4.574,4.236l1.428,1.5c0.604,0.648,1.234,0.882,2.029,0.882C78.226,263.493,78.946,263.169,79.608,262.552z"/>
		</g>
		<g>
			<path style="fill:#A9B833;" d="M185.97,300.74c-0.896-0.999-2.338-1.504-4.191-1.388l-1.178,0.09l1.047,13.68l1.484-0.085
				c1.78-0.181,3.014-0.857,3.75-2.031c0.691-1.181,0.986-2.972,0.766-5.236C187.485,303.472,186.929,301.856,185.97,300.74z"/>
		</g>
		<g>
			<path style="fill:#A9B833;" d="M268.064,67.09c1.766-2.117,1.234-4.473-1.133-6.503c-1.293-1.09-2.043-1.585-2.514-1.823
				l-5.385,6.352l2.016,1.682C263.651,69.036,266.3,69.036,268.064,67.09z"/>
		</g>
		<g>
			<path style="fill:#A9B833;" d="M315.399,151.844c0.365-1.267,0.795-3.615,0.207-6.439c-0.516-2.913-2.164-4.093-3.664-3.854
				c-1.899,0.408-2.471,2.174-3.191,6.411c-0.957,5.529-3.268,8.502-7.488,9.356c-5,0.851-9.959-2.089-11.547-10.239
				c-0.619-3.412-0.326-6.976,0.34-8.798l5.75,0.297c-0.602,1.968-0.973,5.004-0.457,7.885c0.576,2.998,2.162,4.413,4.178,3.997
				c1.811-0.324,2.648-1.85,3.178-5.678c0.852-5.295,2.958-9.091,7.374-9.941c5.043-0.94,9.732,2.615,11.044,9.617
				c0.617,3.386,0.426,5.944-0.062,7.89L315.399,151.844z M305.058,232.957c-1.205,2.646-2.971,4.354-5.457,5.088
				c-2.438,0.796-5.135,0.44-8.146-1c-3.018-1.357-5.02-3.206-6.123-5.472c-1.016-2.322-0.926-4.795,0.34-7.474
				c1.241-2.766,3.032-4.503,5.309-5.295c2.311-0.735,5.109-0.325,8.326,1.115c2.898,1.383,4.9,3.147,6.002,5.504
				C306.382,227.836,306.306,230.308,305.058,232.957z M297.276,247.427l-11.004-4.731l6.031,9.208l-1.176,1.706l-10.223-2.147
				l8.06,8.209l-2.443,3.736l-14.795-15.566l1-1.44l13.369,2.233l-7.178-11.474l1.045-1.559l19.99,7.886L297.276,247.427z
				 M280.315,270.437c-1.146,1.297-2.207,2.205-3.176,2.737c-0.957,0.585-1.883,1.025-2.81,1.409l-2.969-2.822
				c0.82-0.177,1.791-0.501,2.822-1.059c1.119-0.5,2.043-1.182,2.793-2.089c0.871-0.941,1.383-1.824,1.445-2.623
				c0.075-0.791-0.164-1.466-0.691-1.908c-0.59-0.59-1.211-0.675-1.942-0.381c-0.78,0.174-1.782,0.705-3.163,1.408
				c-1.587,0.881-3.072,1.354-4.414,1.413c-1.322,0.117-2.572-0.382-3.75-1.413c-1.382-1.234-1.986-2.765-1.943-4.557
				c0.09-1.798,0.707-3.238,1.943-4.678c1.178-1.207,2.176-2.148,3.014-2.562c0.842-0.442,1.564-0.734,2.252-0.91l3.264,3.881
				l-0.809,0.915l-1.484-1.357c-0.281,0.091-0.723,0.299-1.309,0.474c-0.516,0.266-1.072,0.677-1.662,1.35
				c-0.748,0.883-1.09,1.589-1.176,2.297c-0.013,0.733,0.176,1.232,0.602,1.707c0.455,0.382,0.986,0.616,1.5,0.616
				c0.604,0,1.486-0.41,2.826-1.15c1.767-0.966,3.381-1.525,4.912-1.822c1.457-0.266,2.898,0.265,4.221,1.473
				c1.386,1.233,2.031,2.705,1.986,4.561C282.569,267.081,281.802,268.761,280.315,270.437z M268.328,281.617l-14.032-15.535
				l3.502-3.061l14.002,15.477L268.328,281.617z M261.679,287.12l-9.486-4.12l-1.516,1.114l5.207,7.237l-3.779,2.764l-12.252-17.001
				l5.662-4.088c1.809-1.292,3.563-1.941,5.178-1.766c1.662,0.117,3.014,0.852,4.115,2.414c0.826,1.085,1.18,2.174,1.209,3.205
				c0,1.058-0.322,1.972-0.957,2.797l10.842,4.413L261.679,287.12z M245.812,295.886c-0.518,1.766-1.899,3.205-4.197,4.412
				c-2.248,1.175-4.16,1.558-5.766,0.941c-1.633-0.5-2.912-1.707-3.912-3.561l-6.766-12.59l4.105-2.207l6.766,12.739
				c0.439,0.851,1.072,1.382,1.734,1.647c0.709,0.353,1.502,0.203,2.441-0.355c1.002-0.499,1.576-1.174,1.738-1.94
				c0.16-0.766-0.076-1.732-0.736-2.913l-6.428-12.089l3.604-1.973l6.721,12.653C246.042,292.415,246.247,294.206,245.812,295.886z
				 M223.29,308.242l-6.18-16.184l-4.602,1.706l-1.326-3.296l13.576-5.264l1.309,3.473l-4.648,1.706l6.193,16.151L223.29,308.242z
				 M197.206,315.126l-4.25-20.48l11.831-2.413l0.688,3.504l-7.207,1.529l1.119,5.412l7.484-1.499l0.471,2.234l-7.502,1.558
				l1.148,5.735l7.723-1.616l0.736,3.472L197.206,315.126z M190.578,313.356c-1.431,1.945-3.8,3.004-7.226,3.27l-6.045,0.468
				l-1.635-20.83l5.77-0.525c3.396-0.208,6.016,0.525,7.768,2.114c1.748,1.681,2.793,4.18,3.086,7.593
				C192.544,308.826,191.944,311.564,190.578,313.356z M173.673,283.44c-61.057,0-110.541-49.427-110.541-110.385
				c0-61.011,49.484-110.438,110.541-110.438c61.076,0,110.525,49.427,110.525,110.438
				C284.198,234.013,234.749,283.44,173.673,283.44z M162.595,316.566l-1.099-3.62l-7.255-0.766l-1.631,3.296l-4.529-0.473
				l11.279-20.005l1.471,0.207l6.77,21.919L162.595,316.566z M144.606,292.175l3.681-2.973l4.323,0.941L148.522,293L144.606,292.175
				z M140.224,313.063l4.545-20.447l4.486,1.032l-4.486,20.415L140.224,313.063z M138.856,297.47
				c-0.457,1.265-1.061,2.271-1.885,2.828c-0.867,0.617-1.791,0.909-2.879,0.909l2.735,11.324l-4.944-1.644l-2.189-10.031
				l-1.768-0.681l-2.838,8.416l-4.399-1.439l6.678-19.832l6.619,2.181c2.131,0.733,3.619,1.85,4.502,3.204
				C139.314,294.148,139.431,295.706,138.856,297.47z M118.276,306.327l-4.471-2.237l0.25-3.822l-6.516-3.265l-2.721,2.589
				l-4.104-1.972l17.549-14.919l1.264,0.682L118.276,306.327z M92.021,291.616l9.621-14.386l-4.162-2.764l2.017-2.913l12.091,7.973
				l-2.002,3.001l-4.131-2.798l-9.594,14.477L92.021,291.616z M88.343,284.674l-2.338,2.737l-9.545-8.032l13.461-15.972l9.266,7.853
				l-2.326,2.647l-5.709-4.705l-3.602,4.237l5.903,4.907l-1.519,1.855l-5.887-5.029l-3.691,4.471L88.343,284.674z M70.722,273.875
				l2.941-9.909l-1.281-1.355l-6.525,5.97l-3.148-3.381l15.413-14.211l4.707,5.152c1.56,1.674,2.396,3.29,2.472,4.97
				c0.104,1.616-0.574,3.03-1.928,4.296c-1.016,0.908-2.025,1.44-3.072,1.616c-1.061,0.149-2.045-0.059-2.926-0.59l-3.123,11.18
				L70.722,273.875z M58.472,259.612c-0.81-0.738-1.459-1.44-1.957-2.146c-1.84-2.772-2.518-5.27-1.957-7.774
				c0.559-2.525,2.193-4.764,4.912-6.612c2.396-1.706,5-2.413,7.768-2.123c2.75,0.294,5.06,1.74,6.898,4.413
				c0.529,0.676,0.971,1.591,1.401,2.59c0.438,1.032,0.628,1.999,0.671,2.945l-4.912,2.615l-0.75-1.031l1.795-1.175
				c0.012-0.499-0.043-1.031-0.162-1.589c-0.088-0.558-0.426-1.148-1-1.973c-0.912-1.292-2.176-2.03-3.766-2.234
				c-1.646-0.174-3.295,0.267-5,1.442c-1.707,1.18-2.84,2.53-3.367,3.971c-0.488,1.414-0.268,2.824,0.866,4.413
				c0.44,0.707,1.071,1.324,1.81,2.031c0.779,0.675,1.516,1.238,2.205,1.614l-3.117,2.181
				C60.044,260.877,59.267,260.345,58.472,259.612z M52.614,244.603l-3.248,1.681l-5.754-11.063l18.506-9.739l5.572,10.597
				l-3.188,1.7l-3.488-6.502l-4.898,2.589l3.574,6.801l-2.059,1.084l-3.619-6.821l-5.074,2.764L52.614,244.603z M38.878,225.04
				c-0.632-1.616-0.971-2.966-1.029-4.089c-0.121-1.089-0.092-2.146,0.059-3.115l3.779-1.413c-0.221,0.883-0.338,1.913-0.338,3.029
				c0.012,1.207,0.221,2.382,0.647,3.472c0.472,1.207,1.028,2.058,1.722,2.414c0.689,0.468,1.396,0.558,2.102,0.233
				c0.677-0.233,1.088-0.733,1.178-1.557c0.133-0.766,0.165-1.914,0.072-3.387c-0.072-1.909,0.191-3.44,0.678-4.62
				c0.529-1.291,1.516-2.116,2.957-2.732c1.736-0.591,3.412-0.564,4.928,0.26c1.561,0.856,2.664,2.148,3.28,3.828
				c0.661,1.616,1,2.941,1.028,3.828c0.029,0.967-0.028,1.791-0.25,2.466l-4.883,1.207l-0.439-1.089l1.809-0.793
				c0.133-0.266,0.146-0.766,0.174-1.383c0-0.589-0.115-1.265-0.426-2.148c-0.385-0.973-0.896-1.706-1.529-1.998
				c-0.619-0.298-1.176-0.384-1.691-0.175c-0.678,0.201-1.059,0.557-1.311,1.057c-0.264,0.409-0.32,1.441-0.264,3.025
				c0.119,1.945-0.057,3.652-0.516,5.12c-0.471,1.445-1.514,2.53-3.176,3.151c-1.752,0.733-3.414,0.585-5.002-0.207
				C40.912,228.542,39.731,227.161,38.878,225.04z M28.065,136.223l31.611-3.029l-1.515,7.209l-8.075,0.733l-1.781,8.501l7.15,3.679
				l-1.443,6.885L26.27,144.965L28.065,136.223z M37.524,108.749l12.738-0.797c3.633-0.145,7.809-0.086,11.518,0.175v-0.084
				c-3.721-1.355-7.473-3.062-11.605-5.088l-7.855-3.913l2.752-5.62l27.211,13.355l-3.18,6.469l-13.385,0.707
				c-3.762,0.149-8.102,0.207-11.912-0.086l-0.088,0.235c3.721,1.5,7.602,3.355,12.031,5.53l8.178,4.062l-2.764,5.618
				l-27.215-13.359L37.524,108.749z M63.028,69.678c2.561-2.973,5.135-4.678,6.635-5.387l3.223,4.68
				c-1.707,0.798-3.426,1.945-5.619,4.472c-3.752,4.269-4.164,9.681,0.766,14.035c4.721,4.088,10.089,3.556,13.796-0.676
				c1-1.12,1.677-2.206,1.899-2.796l-4.824-4.238l-3.074,3.59l-4.018-3.59l7.414-8.41l12.031,10.41
				c-0.854,2.09-2.766,5.768-5.342,8.74c-3.674,4.205-7.337,6.32-11.205,6.646c-3.781,0.298-7.797-1.117-11.123-3.999
				C55.999,86.448,56.515,77.153,63.028,69.678z M94.14,43.936l3.313,4.562l-9.595,6.91l3.619,5.035l9.078-6.417l3.248,4.561
				l-9.045,6.443l4.162,5.826l10.135-7.24l3.252,4.562l-15.665,11.24L78.989,54.791L94.14,43.936z M110.247,35.526l10.165,22.356
				l10.942-5.061l2.381,5.268L116.555,66l-12.547-27.618L110.247,35.526z M148.989,23.198l1.311,5.443l-11.561,2.797l1.439,6.028
				l10.889-2.499l1.248,5.381l-10.869,2.53l1.632,7.034l12.163-2.855l1.223,5.443l-18.783,4.381l-6.885-29.414L148.989,23.198z
				 M171.085,21.049c3.5-0.148,5.986,0.532,7.781,1.265l-1.383,5.594c-1.162-0.591-3.383-1.388-6.309-1.33
				c-2.972,0.091-4.385,1.563-4.34,3.005c0.027,1.973,1.748,2.796,5.721,4.236c5.412,1.85,7.941,4.529,8.045,8.883
				c0.104,5.062-3.615,9.443-11.971,9.65c-3.398,0.059-6.884-0.797-8.593-1.675l1.267-5.651c1.781,0.856,4.692,1.797,7.604,1.681
				c3.131-0.032,4.766-1.415,4.738-3.388c-0.061-1.913-1.516-2.971-5.18-4.119c-5.102-1.707-8.486-4.381-8.605-8.766
				C159.728,25.254,164.024,21.198,171.085,21.049z M207.519,25.318l0.119,13.265c0.014,3.855,0,7.326-0.307,11.238l0.145,0.033
				c1.662-3.329,3.576-6.503,5.486-9.598l7.223-11.44l6.984,1.942l-17.975,26.448l-7.689-2.174l-1.176-31.72L207.519,25.318z
				 M252.751,43.819l-2.678,4.972l-10.398-5.529l-2.986,5.529l9.842,5.236l-2.648,4.944l-9.855-5.295l-3.381,6.326l11.029,5.821
				l-2.705,5.003l-16.945-9.117l14.27-26.684L252.751,43.819z M269.653,56.206c3.41,2.914,5.397,5.472,5.897,8.21
				c0.473,2.265-0.119,4.556-1.971,6.618c-2.455,2.941-6.264,3.148-8.883,2.174l-0.117,0.092c1.059,2.057,0.721,4.321-0.516,6.91
				c-1.547,3.266-3.442,6.854-3.768,8.093l-5.307-4.562c0.221-0.909,1.248-3.265,3.027-6.646c1.811-3.445,1.443-5.062-0.676-6.917
				l-1.513-1.324l-7.77,9.033l-5.145-4.444l19.37-22.59C264.181,51.943,266.856,53.793,269.653,56.206z M293.173,80.95
				c3.369,4.732,4.826,8.352,4.676,11.913c-0.041,3.966-1.957,7.704-6.383,10.857c-4.707,3.349-9.179,4.023-12.857,3.057
				c-4.029-1.032-7.926-4.271-11.385-9.118c-2.074-2.887-3.338-5.062-4.146-6.534l24.239-17.267
				C289.097,75.563,291.218,78.178,293.173,80.95z M315.427,123.012l-5.178,2.121l-4.516-10.855l-5.821,2.355l4.251,10.351
				l-5.184,2.063l-4.219-10.326l-6.691,2.734l4.795,11.504l-5.236,2.147l-7.355-17.799l28.037-11.563L315.427,123.012z
				 M173.673,2.016c-94.61,0-171.291,76.487-171.291,171.039c0,94.441,76.682,171.044,171.291,171.044
				c94.643,0,171.291-76.603,171.291-171.044C344.964,78.503,268.315,2.016,173.673,2.016z"/>
		</g>
		<g>
			<polygon style="fill:#A9B833;" points="155.183,310.181 160.874,310.825 158.73,303.531 			"/>
		</g>
		<g>
			<polygon style="fill:#A9B833;" points="114.177,298.061 114.763,290.468 109.099,295.53 			"/>
		</g>
		<g>
			<path style="fill:#A9B833;" d="M297.22,224.481c-2.047-0.94-3.738-1.414-5.09-1.206c-1.311,0.267-2.328,1.005-3.018,2.444
				c-0.604,1.293-0.559,2.5,0.103,3.706c0.678,1.149,2.088,2.206,4.266,3.206c2.061,0.941,3.738,1.323,5.086,1.116
				c1.357-0.175,2.357-0.968,2.973-2.35c0.709-1.473,0.635-2.738-0.086-3.795C300.733,226.454,299.321,225.423,297.22,224.481z"/>
		</g>
		<g>
			<path style="fill:#A9B833;" d="M287.097,97.978c5.281-3.797,5.649-8.56,2.238-13.382c-0.853-1.238-1.632-1.945-2.017-2.355
				l-16.135,11.474c0.203,0.616,0.75,1.355,1.25,1.998C276.022,100.832,281.167,102.215,287.097,97.978z"/>
		</g>
		<g>
			<path style="fill:#274D83;" d="M182.823,185.645c1.867-1.823,4.854-1.791,6.648,0.116l28.49,29.129
				c1.838,1.825,1.797,4.828-0.014,6.65l-0.266,0.209c-1.895,1.881-3.043,3.614-4.838,1.85l-30.316-31.036
				c-1.838-1.884-1.824-4.822,0.088-6.652L182.823,185.645z"/>
		</g>
		<g>
			<path style="fill:#274D83;" d="M199.636,232.281c0.693-2.562,3.252-4.061,5.752-3.354l10.135,2.646
				c2.469,0.708,15.709,14.238,15.709,14.238l-28.344-7.528c-2.502-0.648-4.016-3.211-3.371-5.679L199.636,232.281z"/>
		</g>
		<g>
			<path style="fill:#274D83;" d="M183.026,167.112c1.812-1.85,4.812-1.85,6.592,0.059l33.789,34.365l-5.678,8.15l-35.039-35.715
				c-1.824-1.825-1.793-4.77,0.045-6.594L183.026,167.112z"/>
		</g>
		<g>
			<path style="fill:#274D83;" d="M197.354,162.083c1.855-1.882,4.855-1.79,6.633,0.059l28.51,29.182
				c1.795,1.829,1.779,4.77-0.076,6.566l-0.264,0.234c-1.836,1.849-4.809,1.849-6.604-0.06l-28.535-29.128
				c-1.811-1.824-1.781-4.822,0.088-6.619L197.354,162.083z"/>
		</g>
		<g>
			<path style="fill:#274D83;" d="M217.022,162.614c1.838-1.765,4.812-1.737,6.617,0.117l28.51,29.092
				c1.809,1.888,10.457,8.33,8.574,10.155l-8.896-3.238c-1.888,1.765-4.845,1.674-6.683-0.117l-28.475-29.129
				c-1.826-1.882-1.783-4.821,0.075-6.618L217.022,162.614z"/>
		</g>
		<g>
			<path style="fill:#274D83;" d="M163.421,157.319c-1.852,1.766-4.811,1.675-6.617-0.149l-28.523-29.096
				c-1.809-1.882-1.736-4.881,0.074-6.618l0.264-0.294c1.867-1.796,3.016-3.646,4.822-1.738l30.365,30.979
				c1.793,1.824,1.719,4.827-0.076,6.592L163.421,157.319z"/>
		</g>
		<g>
			<path style="fill:#274D83;" d="M146.653,110.716c-0.678,2.504-3.223,3.943-5.752,3.386l-10.166-2.764
				c-2.455-0.622-15.693-14.243-15.693-14.243l28.389,7.533c2.471,0.676,4.002,3.237,3.322,5.678L146.653,110.716z"/>
		</g>
		<g>
			<path style="fill:#274D83;" d="M163.304,175.878c-1.883,1.765-4.838,1.707-6.65-0.059l-33.785-34.477l5.678-8.118l35.111,35.711
				c1.779,1.945,1.764,4.885-0.119,6.677L163.304,175.878z"/>
		</g>
		<g>
			<path style="fill:#274D83;" d="M148.96,180.823c-1.881,1.851-4.85,1.851-6.689-0.059l-28.465-29.122
				c-1.822-1.797-1.777-4.797,0.062-6.62l0.232-0.239c1.883-1.85,4.871-1.791,6.664,0.059l28.49,29.13
				c1.812,1.907,1.766,4.82-0.088,6.676L148.96,180.823z"/>
		</g>
		<g>
			<path style="fill:#274D83;" d="M129.312,180.323c-1.887,1.733-4.84,1.733-6.649-0.057l-28.538-29.13
				c-1.811-1.908-10.396-8.325-8.559-10.118l8.867,3.207c1.914-1.823,4.885-1.792,6.68,0.09l28.449,29.065
				c1.865,1.914,1.793,4.854-0.061,6.71L129.312,180.323z"/>
		</g>
		<g>
			<path style="fill:#274D83;" d="M254.003,227.926l-13.9,8.002l-13.945-8.002v-16.065l13.945-8.002l13.9,8.002L254.003,227.926
				L254.003,227.926z M240.704,191.472c-15.387,0-27.816,12.445-27.816,27.805c0,15.119,12.109,27.416,27.154,27.772
				c11.604-10.122,20.844-22.77,26.889-37.161C263.078,199.122,252.778,191.472,240.704,191.472z"/>
		</g>
		<g>
			<path style="fill:#274D83;" d="M92.287,115.043l13.868-8.06l13.934,8.06v16.002l-13.934,8.092l-13.868-8.092V115.043z
				 M105.567,151.46c15.389,0,27.861-12.44,27.861-27.74c0-14.972-11.811-27.124-26.596-27.831
				c-11.738,10.505-21.046,23.743-26.873,38.687C84.196,144.518,94.081,151.46,105.567,151.46z"/>
		</g>
		<g>
			<path style="fill:#247652;" d="M173.673,283.698c-61.08,0-110.772-49.634-110.772-110.643
				C62.9,112,112.593,62.329,173.673,62.329c61.089,0,110.788,49.672,110.788,110.727
				C284.461,234.064,234.762,283.698,173.673,283.698z M173.673,73.499c-54.921,0-99.603,44.661-99.603,99.557
				c0,54.85,44.682,99.473,99.603,99.473c54.93,0,99.618-44.623,99.618-99.473C273.291,118.16,228.603,73.499,173.673,73.499z"/>
		</g>
		<g>
			<path style="fill:#247652;" d="M45.774,190.999c0,4.741-3.867,8.623-8.633,8.623c-4.768,0-8.621-3.882-8.621-8.623
				c0-4.822,3.853-8.619,8.621-8.619C41.907,182.38,45.774,186.177,45.774,190.999z"/>
		</g>
		<g>
			<path style="fill:#247652;" d="M173.673,345.448c-95.192,0-172.637-77.335-172.637-172.393
				C1.036,77.937,78.48,0.552,173.673,0.552c95.22,0,172.687,77.384,172.687,172.503
				C346.359,268.113,268.893,345.448,173.673,345.448z M173.673,11.722c-89.033,0-161.467,72.373-161.467,161.333
				c0,88.898,72.434,161.223,161.467,161.223c89.061,0,161.517-72.324,161.517-161.223
				C335.189,84.096,262.733,11.722,173.673,11.722z"/>
		</g>
		<g>
			<path style="fill:#247652;" d="M319.061,190.999c0,4.741-3.883,8.623-8.637,8.623c-4.763,0-8.633-3.882-8.633-8.623
				c0-4.822,3.87-8.619,8.633-8.619C315.179,182.38,319.061,186.177,319.061,190.999z"/>
		</g>
	</g>
</g>
</svg>
